<?xml version="1.0" encoding="utf-8"?>
<!-- Generator: Adobe Illustrator 28.2.0, SVG Export Plug-In . SVG Version: 6.00 Build 0)  -->
<svg version="1.1" id="Layer_1" xmlns="http://www.w3.org/2000/svg" xmlns:xlink="http://www.w3.org/1999/xlink" x="0px" y="0px"
	 viewBox="0 0 30 31" style="enable-background:new 0 0 30 31;" xml:space="preserve">
<style type="text/css">
	.st0{fill:none;stroke:#FFFFFF;stroke-width:0.8372;stroke-linecap:round;}
	.st1{fill:#FFFFFF;}
</style>
<g id="Frame_24">
	<path class="st0" d="M28.1,30.1H1.9c-0.8,0-1.5-0.7-1.5-1.5V2.4c0-0.8,0.7-1.5,1.5-1.5h26.2c0.8,0,1.5,0.7,1.5,1.5v26.2
		C29.6,29.4,28.9,30.1,28.1,30.1z"/>
	<path id="Arrow_1" class="st1" d="M14.5,23c0.3,0.3,0.7,0.3,0.9,0l4.2-4.2c0.3-0.3,0.3-0.7,0-0.9s-0.7-0.3-0.9,0L15,21.6l-3.7-3.7
		c-0.3-0.3-0.7-0.3-0.9,0c-0.3,0.3-0.3,0.7,0,0.9L14.5,23z M14.3,8.5v14.1h1.3V8.5H14.3z"/>
</g>
</svg>
