<?xml version="1.0" encoding="utf-8"?>
<!-- Generator: Adobe Illustrator 28.2.0, SVG Export Plug-In . SVG Version: 6.00 Build 0)  -->
<svg version="1.1" id="Layer_1" xmlns="http://www.w3.org/2000/svg" xmlns:xlink="http://www.w3.org/1999/xlink" x="0px" y="0px"
	 viewBox="0 0 30 30" style="enable-background:new 0 0 30 30;" xml:space="preserve">
<style type="text/css">
	.st0{fill-rule:evenodd;clip-rule:evenodd;fill:#FFFFFF;}
	.st1{fill:#FFFFFF;}
</style>
<g id="Hicon__x2F__Bold__x2F__Calender_2">
	<g id="Calender_2">
		<g id="Vector">
			<path class="st0" d="M9.4,5.2c-1.3,0.2-2.3,0.5-3,1C5.8,6.6,5.3,7,4.9,7.6c-1.2,1.6-1.2,4-1.2,8.7s0,7,1.2,8.7
				c0.4,0.5,0.9,1,1.4,1.4c1.6,1.2,4,1.2,8.7,1.2c1,0,2,0,2.8,0v-0.1c0-1.1,0-1.7,0.1-2.3c0.5-3.1,2.9-5.5,6-6
				c0.6-0.1,1.2-0.1,2.3-0.1h0.1c0-0.8,0-1.8,0-2.8c0-4.7,0-7-1.2-8.7c-0.4-0.5-0.9-1-1.4-1.4c-0.8-0.6-1.7-0.9-3-1v1.1
				c0,1-0.8,1.9-1.9,1.9s-1.9-0.8-1.9-1.9V5c-0.6,0-1.2,0-1.9,0s-1.3,0-1.9,0v1.2c0,1-0.8,1.9-1.9,1.9S9.4,7.3,9.4,6.2V5.2z
				 M8.8,12.5c0.7,0,1.2-0.6,1.2-1.2S9.4,10,8.8,10s-1.2,0.6-1.2,1.2S8.1,12.5,8.8,12.5z M10,16.2c0,0.7-0.6,1.2-1.2,1.2
				s-1.2-0.6-1.2-1.2c0-0.7,0.6-1.2,1.2-1.2S10,15.6,10,16.2z M15,12.5c0.7,0,1.2-0.6,1.2-1.2S15.7,10,15,10s-1.2,0.6-1.2,1.2
				S14.3,12.5,15,12.5z M16.2,16.2c0,0.7-0.6,1.2-1.2,1.2s-1.2-0.6-1.2-1.2c0-0.7,0.6-1.2,1.2-1.2S16.2,15.6,16.2,16.2z M15,22.5
				c0.7,0,1.2-0.6,1.2-1.2S15.7,20,15,20s-1.2,0.6-1.2,1.2S14.3,22.5,15,22.5z M22.5,11.2c0,0.7-0.6,1.2-1.2,1.2S20,11.9,20,11.2
				s0.6-1.2,1.2-1.2S22.5,10.6,22.5,11.2z M21.2,17.5c0.7,0,1.2-0.6,1.2-1.2c0-0.7-0.6-1.2-1.2-1.2S20,15.6,20,16.2
				C20,16.9,20.6,17.5,21.2,17.5z M10,21.2c0,0.7-0.6,1.2-1.2,1.2s-1.2-0.6-1.2-1.2S8.1,20,8.8,20S10,20.6,10,21.2z"/>
			<path class="st1" d="M26.2,20.9c-1.1,0-1.6,0-2,0.1c-2.3,0.4-4.1,2.1-4.4,4.4c-0.1,0.4-0.1,0.9-0.1,2c1.8-0.1,3-0.4,4-1.1
				c0.5-0.4,1-0.9,1.4-1.4C25.8,24,26.1,22.7,26.2,20.9z"/>
			<path class="st1" d="M12.2,2.5c0-0.5-0.4-0.9-0.9-0.9S10.3,2,10.3,2.5v3.8c0,0.5,0.4,0.9,0.9,0.9s0.9-0.4,0.9-0.9V2.5z"/>
			<path class="st1" d="M19.7,2.5c0-0.5-0.4-0.9-0.9-0.9S17.8,2,17.8,2.5v3.8c0,0.5,0.4,0.9,0.9,0.9s0.9-0.4,0.9-0.9V2.5z"/>
		</g>
	</g>
</g>
</svg>
