<?xml version="1.0" encoding="utf-8"?>
<!-- Generator: Adobe Illustrator 28.2.0, SVG Export Plug-In . SVG Version: 6.00 Build 0)  -->
<svg version="1.1" id="Layer_1" xmlns="http://www.w3.org/2000/svg" xmlns:xlink="http://www.w3.org/1999/xlink" x="0px" y="0px"
	 viewBox="0 0 37 20" style="enable-background:new 0 0 37 20;" xml:space="preserve">
<style type="text/css">
	.st0{fill:none;stroke:#FFFFFF;stroke-width:1.4465;}
</style>
<g id="Group">
	<g id="Group_2">
		<path id="Vector" class="st0" d="M5.9,14.7L5.9,14.7c4.2,3,8.5,4.5,12.4,4.5c3.9,0,8.2-1.5,12.4-4.5l0,0c3.1-2.2,5.1-4.5,5.1-4.5
			L5.9,14.7z M5.9,14.7c-3.1-2.2-5.1-4.5-5.1-4.5l0,0 M5.9,14.7l-5.1-4.5 M0.8,10.2c-0.1-0.1-0.1-0.3,0-0.4c0.1-0.1,2-2.3,5.1-4.5
			 M0.8,10.2l35.1-0.4 M35.9,9.8L35.9,9.8c-0.1-0.1-2-2.3-5.1-4.5c-4.2-3-8.5-4.5-12.4-4.5c-3.9,0-8.2,1.5-12.4,4.5 M35.9,9.8
			c0.1,0.1,0.1,0.3,0,0.4L35.9,9.8z M5.9,5.3L5.5,4.7L5.9,5.3z M6.3,5.7c-2,1.4-3.6,2.9-4.4,3.7L1.5,10l0.5,0.5
			c0.8,0.8,2.4,2.3,4.4,3.7h0c2.8,2,7.2,4.4,12,4.4c4.9,0,9.3-2.4,12-4.4c2-1.4,3.6-2.9,4.4-3.7l0.5-0.5l-0.5-0.5
			c-0.8-0.8-2.4-2.3-4.4-3.7c-2.8-2-7.2-4.4-12-4.4C13.5,1.4,9.1,3.8,6.3,5.7z M6.3,5.7l0.4,0.6L6.3,5.7z"/>
	</g>
	<g id="Group_3">
		<path id="Vector_2" class="st0" d="M22.1,5.7L22.1,5.7c0.1,0.1,0.1,0.3,0,0.4l0.5,0.5l-0.5-0.5c-0.1,0.1-0.3,0.1-0.4,0
			c-0.9-0.8-2.1-1.3-3.4-1.3c-2.8,0-5.1,2.3-5.1,5.1c0,2.8,2.3,5.1,5.1,5.1s5.1-2.3,5.1-5.1c0-0.2,0.1-0.3,0.3-0.3
			c0.2,0,0.3,0.1,0.3,0.3v0c0,3.2-2.6,5.7-5.7,5.7s-5.7-2.6-5.7-5.7c0-3.2,2.6-5.7,5.7-5.7C19.8,4.3,21.1,4.8,22.1,5.7z"/>
	</g>
	<g id="Group_4">
		<path id="Vector_3" class="st0" d="M18.4,11.4c-0.7,0-1.4-0.6-1.4-1.4c0-0.7,0.6-1.4,1.4-1.4c0.7,0,1.4,0.6,1.4,1.4
			C19.7,10.7,19.1,11.4,18.4,11.4z"/>
	</g>
</g>
</svg>
