<svg width="22" height="28" viewBox="0 0 22 28" fill="none" xmlns="http://www.w3.org/2000/svg">
<path id="Vector" fill-rule="evenodd" clip-rule="evenodd" d="M14.3706 24.9275C17.4495 21.0013 21.3278 15.2972 21.3278 11.4753C21.3278 5.13765 16.5534 0 10.6639 0C4.77438 0 0 5.13765 0 11.4753C0 15.2972 3.87826 21.0013 6.95713 24.9275C8.56343 26.9758 9.36658 28 10.6639 28C11.9612 28 12.7643 26.9758 14.3706 24.9275ZM10.6639 15C8.45532 15 6.66493 13.2096 6.66493 11.001C6.66493 8.79248 8.45532 7.00208 10.6639 7.00208C12.8725 7.00208 14.6628 8.79248 14.6628 11.001C14.6628 13.2096 12.8725 15 10.6639 15Z" fill="black"/>
</svg>
