<?xml version="1.0" encoding="utf-8"?>
<!-- Generator: Adobe Illustrator 28.2.0, SVG Export Plug-In . SVG Version: 6.00 Build 0)  -->
<svg version="1.1" id="Layer_1" xmlns="http://www.w3.org/2000/svg" xmlns:xlink="http://www.w3.org/1999/xlink" x="0px" y="0px"
	 viewBox="0 0 22 28" style="enable-background:new 0 0 22 28;" xml:space="preserve">
<style type="text/css">
	.st0{fill-rule:evenodd;clip-rule:evenodd;fill:#FFFFFF;}
</style>
<path id="Vector" class="st0" d="M14.4,24.9c3.1-3.9,7-9.6,7-13.5C21.3,5.1,16.6,0,10.7,0C4.8,0,0,5.1,0,11.5c0,3.8,3.9,9.5,7,13.5
	c1.6,2,2.4,3.1,3.7,3.1C12,28,12.8,27,14.4,24.9z M10.7,15c-2.2,0-4-1.8-4-4c0-2.2,1.8-4,4-4c2.2,0,4,1.8,4,4
	C14.7,13.2,12.9,15,10.7,15z"/>
</svg>
