<?xml version="1.0" encoding="utf-8"?>
<!-- Generator: Adobe Illustrator 28.2.0, SVG Export Plug-In . SVG Version: 6.00 Build 0)  -->
<svg version="1.1" id="Layer_1" xmlns="http://www.w3.org/2000/svg" xmlns:xlink="http://www.w3.org/1999/xlink" x="0px" y="0px"
	 viewBox="0 0 70 70" style="enable-background:new 0 0 70 70;" xml:space="preserve">
<style type="text/css">
	.st0{fill:none;stroke:#FFFFFF;stroke-width:5;stroke-linecap:round;stroke-linejoin:round;stroke-opacity:0.3;}
</style>
<path id="Vector" class="st0" d="M41.5,51.5l-6.4-6.4c-3-2.9-4.4-4.4-6.1-5c-1.5-0.5-3.1-0.5-4.6,0c-1.7,0.6-3.2,2-6.1,5l-15,15.1
	 M41.5,51.5l1.3-1.3c3-3,4.5-4.5,6.3-5c1.5-0.5,3.2-0.5,4.7,0.1c1.7,0.6,3.2,2.1,6.1,5.2l3.1,3.2 M41.5,51.5l14.8,15.1 M3.2,60.2
	c0.1,1,0.3,1.7,0.7,2.4c0.7,1.4,1.9,2.6,3.3,3.3c1.6,0.8,3.7,0.8,7.9,0.8h36c2.3,0,4,0,5.3-0.1 M3.2,60.2C3,58.9,3,57.2,3,54.8v-36
	c0-4.2,0-6.3,0.8-7.9c0.7-1.4,1.9-2.6,3.3-3.3c1.6-0.8,3.7-0.8,7.9-0.8h14.2 M56.3,66.6c1.1-0.1,1.9-0.3,2.6-0.7
	c1.4-0.7,2.6-1.9,3.3-3.3C63,61.1,63,59,63,54.8V40.5 M55.5,25.5V14.2 M55.5,14.2V3 M55.5,14.2h11.2 M55.5,14.2H44.2"/>
</svg>
